<svg id="Camada_1" data-name="Camada 1" xmlns="http://www.w3.org/2000/svg" viewBox="0 0 145.11 114"><defs><style>.cls-1{fill:#9cd7d3;}</style></defs><title>icones</title><path class="cls-1" d="M95.86,110.9V92.48a2.21,2.21,0,0,0-1.48-2.32A2.17,2.17,0,0,0,91.51,92c0,.24,0,.48,0,.73,0,6.35,0,12.7,0,19.06,0,.52-.16.71-.66.84A43.56,43.56,0,0,1,80,114H66.52a43.18,43.18,0,0,1-12-1.73.86.86,0,0,1-.75-1c0-6.28,0-12.55,0-18.82a2.24,2.24,0,0,0-1.37-2.28,2.17,2.17,0,0,0-3,2c0,.71,0,1.41,0,2.12v16c-.15,0-.23,0-.3-.07a28.61,28.61,0,0,1-12.17-10.3c-4.78-7.52-4.18-16.32,1.57-23.34a30.43,30.43,0,0,1,13.71-9.38c2.27-.8,4.65-1.28,7-1.91a1.64,1.64,0,0,1,1.3.23q12.23,7,24.41-.08a2.26,2.26,0,0,1,1.58-.32,36.74,36.74,0,0,1,17.4,7.23,22.73,22.73,0,0,1,8.41,12c1.7,6.31.24,12-3.65,17.15a29.93,29.93,0,0,1-12.4,9.29A2.53,2.53,0,0,1,95.86,110.9Z"/><path class="cls-1" d="M51,39.87c0-13.69,10.66-23.68,23.07-22.78a21.56,21.56,0,0,1,20,24.25A25.62,25.62,0,0,1,83.48,59.46a17.61,17.61,0,0,1-21.72,0A25.66,25.66,0,0,1,51,39.87Z"/><path class="cls-1" d="M49.38,63.26V59.87c0-.3,0-.6,0-.91a1.46,1.46,0,1,0-2.9,0c0,1.65,0,3.3,0,5a.89.89,0,0,1-.6.94,34.37,34.37,0,0,0-13.39,11,.83.83,0,0,1-.57.33c-3.41-.06-6.81-.08-10.21-.24a39.31,39.31,0,0,1-4.29-.68v-16a4.85,4.85,0,0,0,0-.66,1.45,1.45,0,0,0-2.87,0c0,.22,0,.44,0,.66V74.4c-1-.43-1.95-.79-2.85-1.22a22.33,22.33,0,0,1-8.33-6.46,14.83,14.83,0,0,1,.57-19.43,24.49,24.49,0,0,1,12.22-7.44C18,39.32,20,39.07,22,38.72a1.45,1.45,0,0,1,.81.13,17.89,17.89,0,0,0,15.5-.08,1.65,1.65,0,0,1,.87-.16c1.89.29,3.77.62,5.66.93.36.06.48.23.5.6a32.82,32.82,0,0,0,9.52,20.91l.41.43Z"/><path class="cls-1" d="M127.81,75.22a37.45,37.45,0,0,1-7.47,1c-1.83,0-3.67,0-5.5,0a.91.91,0,0,1-.65-.3A34.84,34.84,0,0,0,99.33,64.18a.81.81,0,0,1-.58-.89c0-1.43,0-2.86,0-4.29a1.46,1.46,0,1,0-2.9,0c0,1.24,0,2.49,0,3.77l-5.58-1.5.4-.45A32.82,32.82,0,0,0,100,40.09c0-.32.07-.54.43-.6,1.83-.29,3.66-.6,5.49-.88a1.66,1.66,0,0,1,.87.17,17.89,17.89,0,0,0,15.5.07,1.22,1.22,0,0,1,.63-.15c6.72.73,12.81,2.93,17.63,7.88a14.93,14.93,0,0,1,4.59,11.51,15.86,15.86,0,0,1-5.39,11,24.59,24.59,0,0,1-8.62,5.12c-.09,0-.19,0-.37.08v-15c0-.22,0-.44,0-.66a1.44,1.44,0,0,0-2.88,0c0,.2,0,.4,0,.61V75.22Z"/><path class="cls-1" d="M131.53,17.15c-.51,7.19-3.51,13.14-9.94,16.94-5.37,3.17-10.8,2.66-15.69-1.08-5.88-4.5-8.74-10.58-8.09-18a16.88,16.88,0,0,1,33.44-.74C131.41,15.14,131.44,16.07,131.53,17.15Z"/><path class="cls-1" d="M13.53,18c0-10.72,8.15-18.52,17.68-18a16.9,16.9,0,0,1,15.7,20.66,20.08,20.08,0,0,1-8,12.49A13.8,13.8,0,0,1,21.66,33,20,20,0,0,1,13.53,18Z"/></svg>