<svg id="Camada_1" data-name="Camada 1" xmlns="http://www.w3.org/2000/svg" viewBox="0 0 119.7 120"><defs><style>.cls-1{fill:#95c581;}</style></defs><title>icones</title><path class="cls-1" d="M17.82,11.52c0,2.41,0,4.68,0,7a10.2,10.2,0,0,0,20.39-.32c0-2.16,0-4.31,0-6.55H81.48c0,.45,0,.89,0,1.33a65.14,65.14,0,0,0,.17,6.71,10.17,10.17,0,0,0,20.23-1.17c.05-2.27,0-4.54,0-6.71,3.63,0,7.17-.34,10.61.1,4,.51,7,4.31,7.18,8.42,0,.42,0,.85,0,1.27v88.56c0,4.79-2.6,8.42-6.88,9.55a10.65,10.65,0,0,1-2.63.33H9.52A9.22,9.22,0,0,1,0,110.57Q0,65.72,0,20.86a9.18,9.18,0,0,1,9.36-9.33C12.12,11.5,14.86,11.52,17.82,11.52Zm42,25.58q-25.33,0-50.68,0c-1.17,0-1.47.29-1.47,1.47q.06,34.14,0,68.27c0,3.65,1.77,5.43,5.38,5.43h93.48c3.61,0,5.39-1.78,5.39-5.42q0-34.14,0-68.28c0-1.17-.28-1.47-1.46-1.47Q85.19,37.13,59.85,37.1Z"/><path class="cls-1" d="M23.13,11.48c0-2.17,0-4.33,0-6.5A4.89,4.89,0,1,1,32.9,5q0,6.56,0,13.1a4.89,4.89,0,1,1-9.77,0,1.69,1.69,0,0,1,0-.23V11.48Z"/><path class="cls-1" d="M96.58,11.54c0,2.12,0,4.25,0,6.37a4.9,4.9,0,1,1-9.78,0q0-6.37,0-12.75a4.89,4.89,0,1,1,9.77,0C96.6,7.29,96.58,9.41,96.58,11.54Z"/><path class="cls-1" d="M29.42,80.62c1.93,0,3.86,0,5.8,0a4,4,0,0,1,4.2,4.24q0,5.79,0,11.59a4,4,0,0,1-4.18,4.27c-3.9,0-7.81,0-11.71,0a4,4,0,0,1-4.21-4.25c0-3.86,0-7.73,0-11.59a4,4,0,0,1,4.3-4.26C25.55,80.6,27.49,80.62,29.42,80.62Z"/><path class="cls-1" d="M80.28,90.61c0-1.94,0-3.87,0-5.8a4,4,0,0,1,4.14-4.19c3.94,0,7.89,0,11.83,0a3.92,3.92,0,0,1,4.13,4.07c.05,4,.05,8,0,11.94a3.91,3.91,0,0,1-4,4.07q-6,.09-12.06,0a4,4,0,0,1-4-4.19V90.61Z"/><path class="cls-1" d="M90.26,68.78c-1.93,0-3.86,0-5.79,0a4,4,0,0,1-4.18-4.12q0-5.91,0-11.81a3.94,3.94,0,0,1,4.15-4.16q5.91-.06,11.81,0a3.94,3.94,0,0,1,4.13,4.08q.08,6,0,11.92a4,4,0,0,1-4.22,4.09c-1,0-2,0-3,0Z"/><path class="cls-1" d="M49.83,58.6c0-1.94,0-3.87,0-5.8a3.89,3.89,0,0,1,4-4.1c4-.07,8.05-.06,12.07,0a3.91,3.91,0,0,1,4,4.17c0,3.94,0,7.88,0,11.82a3.89,3.89,0,0,1-4.08,4.1c-4,0-8,0-11.94,0a3.9,3.9,0,0,1-4-4C49.8,62.69,49.83,60.64,49.83,58.6Z"/><path class="cls-1" d="M69.88,90.71c0,2,0,3.94,0,5.91A3.85,3.85,0,0,1,66,100.69q-6.15.14-12.29,0a3.85,3.85,0,0,1-3.89-4.06c0-4,0-8,0-12a3.83,3.83,0,0,1,3.86-4q6.13-.09,12.29,0a3.88,3.88,0,0,1,3.89,3.93v6.14Z"/></svg>