<svg id="Camada_1" data-name="Camada 1" xmlns="http://www.w3.org/2000/svg" viewBox="0 0 144.06 114"><defs><style>.cls-1{fill:#fdafbc;}</style></defs><title>icones</title><path class="cls-1" d="M72,114q-20.52,0-41,0a13.93,13.93,0,0,1-14.09-15.4c.28-2.78,1-5.52,1.53-8.27q2.13-10.84,4.3-21.69C23.85,62.89,27.31,59.36,33,58.1c2.36-.51,4.73-1,7.09-1.48A12.7,12.7,0,0,0,50.25,43.17c-.2-2.86-.38-5.73-.66-8.59a1.34,1.34,0,0,1,1-1.66C63.37,27.73,76.33,27,89.48,31.47c1.48.5,2.93,1.11,4.4,1.63a.84.84,0,0,1,.62,1c-.24,2.89-.42,5.79-.66,8.68a12.68,12.68,0,0,0,10.22,13.83c2.36.51,4.73,1,7.09,1.49,5.43,1.22,8.95,4.53,10.09,10q3.09,14.7,5.82,29.47A13.92,13.92,0,0,1,113.27,114Q92.62,114,72,114ZM48.43,77.64A23.55,23.55,0,1,0,72,54.06,23.55,23.55,0,0,0,48.43,77.64Z"/><path class="cls-1" d="M71.82,0a145.83,145.83,0,0,1,37.06,4c7.23,1.8,14.21,4.26,20.39,8.51,7.84,5.4,13,12.61,14.51,22.19a25.29,25.29,0,0,1-2.84,15.61,33.7,33.7,0,0,1-5.09,7.27A7.74,7.74,0,0,1,127.7,60a20.08,20.08,0,0,1-4.57-1.69c-6.8-3.59-13.54-7.3-20.33-10.93a4.78,4.78,0,0,1-2.7-4.81,27.1,27.1,0,0,1,.79-4.71c.46-1.9,1.14-3.74,1.6-5.64.53-2.21.11-2.92-1.81-4.1-3.15-1.94-6.72-2.64-10.23-3.5a75,75,0,0,0-32.22-.91c-3.88.74-7.7,1.75-11.51,2.76a16.52,16.52,0,0,0-3.46,1.57,3.18,3.18,0,0,0-1.69,3.46,19.21,19.21,0,0,0,.84,3.6A22.61,22.61,0,0,1,44,42.66a4.84,4.84,0,0,1-2.59,4.5c-4,2.23-7.88,4.62-12,6.65-4.34,2.17-8.82,4.06-13.28,6-2.77,1.2-5.21.62-7.42-1.53A28.73,28.73,0,0,1,.38,41.81c-1.32-8.07.85-15.14,6-21.42A44.72,44.72,0,0,1,27.55,6.23C41.05,1.75,54.93.05,69.08,0Z"/><path class="cls-1" d="M54.56,77.59A17.43,17.43,0,1,1,71.87,95,17.43,17.43,0,0,1,54.56,77.59Z"/></svg>