<svg id="Camada_1" data-name="Camada 1" xmlns="http://www.w3.org/2000/svg" viewBox="0 0 143.62 144.78"><defs><style>.cls-1{fill:#4d352d;}.cls-2{fill:#ffba56;}.cls-3{fill:#fbedbe;}.cls-4{fill:#fdafbc;}.cls-5{fill:#9cd7d3;}</style></defs><title>icones</title><path class="cls-1" d="M69.25,1l1.52-1c1.26-.2,1.41.76,2,1.29l9.42,8.91L131.62,57q5.59,5.27,11.2,10.5a2.48,2.48,0,0,1-1.66,4.3c-2.72,0-5.44.08-8.16,0-1.24,0-1.54.39-1.54,1.58q0,35,0,70c0,.48,0,1,0,1.44H11.62q0-35.79,0-71.59c0-1-.3-1.4-1.37-1.39-2.45,0-4.9,0-7.35,0a3.45,3.45,0,0,1-1.87-.59A2.57,2.57,0,0,1,.8,67.23l68.26-66A2.11,2.11,0,0,0,69.25,1Zm66.16,66.07c-.71-.7-1.16-1.17-1.63-1.61L72.14,7.25c-1.26-1.19-1.26-1.19-2.53,0L8.74,66.17a11.2,11.2,0,0,0-.75.92ZM71.53,71.83H18.07c-1.66,0-1.66,0-1.66,1.65q0,32.63,0,65.23c0,1.25.4,1.54,1.58,1.54q26.43,0,52.86,0c1.63,0,1.63,0,1.63-1.66q0-28.89,0-57.78c0-1.23.35-1.55,1.56-1.54,13.09,0,26.19,0,39.28,0,1.63,0,1.63,0,1.63,1.68q0,28.89,0,57.79c0,1.19.33,1.58,1.67,1.5a60.65,60.65,0,0,1,8.2,0c1.5.11,2-.18,2-1.53q-.06-32.63,0-65.23c0-1.64,0-1.65-1.67-1.65Zm5.74,39.82h0c0,8.77,0,17.53,0,26.3,0,1.18.28,1.59,1.54,1.58q14.89-.08,29.78,0c1.23,0,1.55-.35,1.55-1.56q0-26.23,0-52.48c0-1.18-.29-1.6-1.54-1.6q-14.89.08-29.78,0c-1.23,0-1.56.38-1.55,1.58C77.29,94.2,77.27,102.92,77.27,111.65Z"/><path class="cls-2" d="M135.41,67.09H8a11.2,11.2,0,0,1,.75-.92L69.61,7.29c1.27-1.23,1.27-1.23,2.53,0l61.64,58.23C134.25,65.92,134.7,66.39,135.41,67.09Z"/><path class="cls-3" d="M71.53,71.83H125c1.66,0,1.67,0,1.67,1.65q0,32.61,0,65.23c0,1.23-.37,1.58-1.58,1.55-2.92-.09-5.84-.08-8.77,0-1.18,0-1.48-.38-1.47-1.51q0-28.91,0-57.79c0-1.68,0-1.68-1.63-1.68-13.09,0-26.19,0-39.28,0-1.21,0-1.56.31-1.56,1.54q.06,28.89,0,57.78c0,1.65,0,1.66-1.63,1.66q-26.43,0-52.86,0c-1.18,0-1.58-.29-1.58-1.54q.06-32.61,0-65.23c0-1.65,0-1.65,1.66-1.65ZM43.94,86.17c-5.33,0-10.66,0-16,0-1.12,0-1.44.32-1.44,1.42q.06,15.45,0,30.88c0,1,.32,1.38,1.38,1.38q16-.06,32,0c1.07,0,1.38-.35,1.37-1.38q0-15.5,0-31c0-1-.33-1.3-1.32-1.3C54.59,86.19,49.27,86.16,43.94,86.17Z"/><path class="cls-4" d="M77.27,111.65c0-8.73,0-17.45,0-26.18,0-1.2.32-1.58,1.55-1.58q14.9.06,29.78,0c1.25,0,1.54.42,1.54,1.6q0,26.24,0,52.48c0,1.21-.32,1.57-1.55,1.56q-14.89-.08-29.78,0c-1.26,0-1.54-.4-1.54-1.58,0-8.77,0-17.53,0-26.3Z"/><path class="cls-1" d="M43.94,86.17c5.33,0,10.65,0,16,0,1,0,1.32.3,1.32,1.3q0,15.5,0,31c0,1-.3,1.38-1.37,1.38q-16-.06-32,0c-1.06,0-1.38-.33-1.38-1.38q0-15.43,0-30.88c0-1.1.32-1.43,1.44-1.42C33.28,86.2,38.61,86.17,43.94,86.17Zm-7.29,18.69h0c-1.44,0-2.88,0-4.32,0-.7,0-1,.26-1,1q0,4.14,0,8.28c0,.73.3,1,1,1,2.88,0,5.75,0,8.63,0,.75,0,.94-.35.94-1q0-4.08,0-8.15c0-.77-.27-1.09-1-1.07C39.45,104.89,38.05,104.86,36.65,104.86Zm19.79,5.07h0c0-1.28,0-2.57,0-3.85,0-.85-.22-1.24-1.14-1.23-2.52,0-5,0-7.57,0-.77,0-1.07.27-1.07,1q0,4.08,0,8.17c0,.79.32,1,1.08,1q3.84,0,7.68,0c.71,0,1-.26,1-1C56.42,112.73,56.44,111.33,56.44,109.93ZM36.65,90.85h0c-1.4,0-2.81,0-4.21,0-.83,0-1.12.31-1.11,1.14q.06,3.54,0,7.08c0,.85.31,1.13,1.13,1.12q4.2,0,8.4,0c.8,0,1.06-.31,1-1.07q0-3.6,0-7.2c0-.77-.29-1.09-1.06-1.07C39.45,90.87,38.05,90.85,36.65,90.85Zm14.92,9.32c1.24,0,2.48,0,3.72,0,.79,0,1.18-.2,1.17-1.08,0-2.39,0-4.79,0-7.19,0-.78-.3-1.07-1.06-1.06q-3.84,0-7.68,0c-.78,0-1,.32-1,1.08,0,2.4,0,4.8,0,7.2,0,.77.27,1.08,1.05,1.06C49,100.15,50.29,100.17,51.57,100.17Z"/><path class="cls-5" d="M36.65,104.86c1.4,0,2.8,0,4.2,0,.78,0,1.06.3,1,1.07q0,4.06,0,8.15c0,.69-.19,1.05-.94,1-2.88,0-5.75,0-8.63,0-.71,0-1-.26-1-1q0-4.14,0-8.28c0-.73.29-1,1-1,1.44,0,2.88,0,4.32,0Z"/><path class="cls-5" d="M56.44,109.93c0,1.4,0,2.8,0,4.2,0,.73-.3,1-1,1q-3.84,0-7.68,0c-.76,0-1.08-.25-1.08-1q0-4.1,0-8.17c0-.78.3-1.06,1.07-1,2.52,0,5,0,7.57,0,.92,0,1.18.38,1.14,1.23,0,1.28,0,2.57,0,3.85Z"/><path class="cls-5" d="M36.65,90.85c1.4,0,2.8,0,4.2,0,.77,0,1.07.3,1.06,1.07q0,3.6,0,7.2c0,.76-.25,1.08-1,1.07q-4.2,0-8.4,0c-.82,0-1.14-.27-1.13-1.12q.06-3.54,0-7.08c0-.83.28-1.16,1.11-1.14,1.4,0,2.81,0,4.21,0Z"/><path class="cls-5" d="M51.57,100.17c-1.28,0-2.55,0-3.83,0-.78,0-1.06-.29-1.05-1.06,0-2.4,0-4.8,0-7.2,0-.76.26-1.08,1-1.08q3.84,0,7.68,0c.76,0,1.07.28,1.06,1.06,0,2.4,0,4.8,0,7.19,0,.88-.38,1.1-1.17,1.08C54.05,100.14,52.81,100.17,51.57,100.17Z"/></svg>