<svg id="Camada_1" data-name="Camada 1" xmlns="http://www.w3.org/2000/svg" viewBox="0 0 137.29 120"><defs><style>.cls-1{fill:#fbedbe;}</style></defs><title>icones</title><path class="cls-1" d="M76.33,21.57,49.84,48.06l21,21.1,26.5-26.49ZM47.06,45.93,74,19l-6.91-6.84c2.61-4,2.32-6.66-1-10l-.57-.57C63.39-.54,61.17-.54,59,1.63Q52.6,8,46.21,14.42L29.63,31c-1.65,1.66-2.11,3.56-.91,5.18,2.65,3.54,6.12,6.56,11.55,2.84ZM79.73,78.4a25.53,25.53,0,0,0-1.44,3.87c-.55,2.82,1,4.82,2.9,6.67,2.56,2.46,4.52,2.52,7,0L111,66.12c2.18-2.18,4.37-4.35,6.53-6.55,1.38-1.4,1.91-3.41.82-4.74a17.3,17.3,0,0,0-4.7-4.22c-2.35-1.32-4.76-.5-7,1.22-2.34-2.36-4.66-4.69-6.84-6.9L73,71.81Zm27.1,25.16q-13,0-26,0A4.09,4.09,0,0,0,76.4,108c0,2.55,0,5.09,0,7.64A4.08,4.08,0,0,0,80.76,120q26.07,0,52.14,0a4.11,4.11,0,0,0,4.38-4.36c0-2.41,0-4.82,0-7.24,0-3.26-1.58-4.83-4.85-4.83Zm24.63-3a1.6,1.6,0,0,0-.06-.44,6.57,6.57,0,0,0-.47-1,11.44,11.44,0,0,0-10.27-6c-9.2-.07-18.41,0-27.61,0a11.22,11.22,0,0,0-8.42,3.52,35.83,35.83,0,0,0-2.82,3.86Z"/><path class="cls-1" d="M0,106c.73-3.49,2.9-6,5.4-8.39,3.1-2.95,6.1-6,9.12-9.07a47.35,47.35,0,0,1,13-9.31,43.59,43.59,0,0,0,11.86-8.61Q46,64,52.56,57.46c.31-.31.64-.61.88-.84l8.79,8.85c-.17.18-.48.54-.81.87-4.73,4.75-9.49,9.47-14.2,14.24A38.46,38.46,0,0,0,40,90.79a51.86,51.86,0,0,1-10.84,14.85c-3.15,3-6.3,6.09-9.28,9.29-7,7.56-18.19,3.38-19.64-5.21a2.18,2.18,0,0,0-.19-.48Z"/><path class="cls-1" d="M76.33,21.57l21.06,21.1L70.89,69.16l-21-21.1Z"/><path class="cls-1" d="M47.06,45.93,40.27,39c-5.43,3.72-8.9.7-11.55-2.84-1.2-1.62-.74-3.52.91-5.18L46.21,14.42Q52.6,8,59,1.63c2.17-2.17,4.39-2.17,6.55,0l.57.57c3.32,3.33,3.61,6,1,10L74,19Z"/><path class="cls-1" d="M79.73,78.4,73,71.81,99.89,44.93c2.18,2.21,4.5,4.54,6.84,6.9,2.2-1.72,4.61-2.54,7-1.22a17.3,17.3,0,0,1,4.7,4.22c1.09,1.33.56,3.34-.82,4.74-2.16,2.2-4.35,4.37-6.53,6.55L88.2,89c-2.49,2.49-4.45,2.43-7,0-1.93-1.85-3.45-3.85-2.9-6.67A25.53,25.53,0,0,1,79.73,78.4Z"/><path class="cls-1" d="M106.83,103.56h25.61c3.27,0,4.84,1.57,4.85,4.83,0,2.42,0,4.83,0,7.24A4.11,4.11,0,0,1,132.9,120q-26.07,0-52.14,0a4.08,4.08,0,0,1-4.36-4.36c0-2.55,0-5.09,0-7.64a4.09,4.09,0,0,1,4.43-4.42Q93.84,103.54,106.83,103.56Z"/><path class="cls-1" d="M131.46,100.61H81.81a35.83,35.83,0,0,1,2.82-3.86,11.22,11.22,0,0,1,8.42-3.52c9.2,0,18.41-.06,27.61,0a11.44,11.44,0,0,1,10.27,6,6.57,6.57,0,0,1,.47,1A1.6,1.6,0,0,1,131.46,100.61Z"/></svg>