<?xml version="1.0" encoding="utf-8"?>
<!-- Generator: Adobe Illustrator 24.0.1, SVG Export Plug-In . SVG Version: 6.00 Build 0)  -->
<svg version="1.1" id="Camada_1" xmlns="http://www.w3.org/2000/svg" xmlns:xlink="http://www.w3.org/1999/xlink" x="0px" y="0px"
	 viewBox="0 0 57 68" style="enable-background:new 0 0 57 68;" xml:space="preserve">
<style type="text/css">
	.st0{fill:#65B6DB;}
</style>
<path class="st0" d="M8.6,62.3V64h-6v-1.7H8.6z M3.2,52.6V64H1.1V52.6H3.2z M7.8,57.3V59H2.6v-1.6H7.8z M8.6,52.6v1.7h-6v-1.7H8.6z
	 M12.6,62.4l2-6.9h2.2L13.8,64h-1.3L12.6,62.4z M11.1,55.5l2,6.9l0.1,1.5h-1.3L9,55.5H11.1z M21.5,64.2c-0.6,0-1.2-0.1-1.7-0.3
	c-0.5-0.2-0.9-0.5-1.3-0.9c-0.4-0.4-0.6-0.8-0.8-1.3c-0.2-0.5-0.3-1-0.3-1.6v-0.3c0-0.7,0.1-1.2,0.3-1.8c0.2-0.5,0.5-1,0.8-1.4
	c0.3-0.4,0.8-0.7,1.2-0.9c0.5-0.2,1-0.3,1.6-0.3c0.6,0,1.1,0.1,1.6,0.3c0.5,0.2,0.8,0.5,1.1,0.8c0.3,0.4,0.5,0.8,0.7,1.3
	c0.2,0.5,0.2,1.1,0.2,1.7v0.9h-6.6V59h4.6v-0.2c0-0.3-0.1-0.6-0.2-0.9c-0.1-0.3-0.3-0.5-0.5-0.7c-0.2-0.2-0.5-0.3-0.9-0.3
	c-0.3,0-0.6,0.1-0.8,0.2c-0.2,0.1-0.4,0.3-0.6,0.6c-0.1,0.2-0.3,0.5-0.3,0.9c-0.1,0.3-0.1,0.7-0.1,1.1v0.3c0,0.4,0,0.7,0.1,1
	c0.1,0.3,0.2,0.6,0.4,0.8c0.2,0.2,0.4,0.4,0.7,0.5c0.3,0.1,0.6,0.2,0.9,0.2c0.4,0,0.8-0.1,1.2-0.3c0.4-0.2,0.7-0.4,0.9-0.8l1,1.1
	c-0.2,0.3-0.4,0.5-0.7,0.8c-0.3,0.2-0.7,0.4-1.1,0.6C22.5,64.1,22,64.2,21.5,64.2z M28.3,57.4V64h-2.1v-8.5h1.9L28.3,57.4z M28,59.5
	h-0.6c0-0.6,0.1-1.2,0.3-1.7c0.2-0.5,0.4-0.9,0.7-1.3c0.3-0.4,0.6-0.6,1.1-0.8c0.4-0.2,0.9-0.3,1.4-0.3c0.4,0,0.8,0.1,1.1,0.2
	s0.6,0.3,0.8,0.5c0.2,0.3,0.4,0.6,0.5,1c0.1,0.4,0.2,0.9,0.2,1.5V64h-2.1v-5.4c0-0.4-0.1-0.7-0.2-0.9c-0.1-0.2-0.3-0.4-0.5-0.5
	c-0.2-0.1-0.5-0.1-0.8-0.1c-0.3,0-0.6,0.1-0.8,0.2c-0.2,0.1-0.4,0.3-0.6,0.5c-0.2,0.2-0.3,0.5-0.4,0.8C28,58.8,28,59.1,28,59.5z
	 M39.2,55.5V57h-4.8v-1.5H39.2z M35.7,53.5h2.1v8.1c0,0.3,0,0.4,0.1,0.6c0.1,0.1,0.2,0.2,0.3,0.3c0.1,0,0.3,0.1,0.5,0.1
	c0.1,0,0.3,0,0.4,0c0.1,0,0.2,0,0.3,0l0,1.5c-0.2,0.1-0.4,0.1-0.6,0.1c-0.2,0-0.5,0.1-0.7,0.1c-0.5,0-0.9-0.1-1.2-0.2
	c-0.3-0.2-0.6-0.4-0.8-0.8c-0.2-0.4-0.3-0.8-0.3-1.4V53.5z M40,59.9v-0.2c0-0.6,0.1-1.2,0.3-1.7c0.2-0.5,0.4-1,0.8-1.4
	c0.3-0.4,0.8-0.7,1.2-0.9c0.5-0.2,1-0.3,1.7-0.3c0.6,0,1.2,0.1,1.7,0.3c0.5,0.2,0.9,0.5,1.3,0.9c0.3,0.4,0.6,0.8,0.8,1.4
	c0.2,0.5,0.3,1.1,0.3,1.7v0.2c0,0.6-0.1,1.2-0.3,1.7c-0.2,0.5-0.4,1-0.8,1.4c-0.3,0.4-0.8,0.7-1.2,0.9c-0.5,0.2-1,0.3-1.7,0.3
	c-0.6,0-1.2-0.1-1.7-0.3c-0.5-0.2-0.9-0.5-1.3-0.9c-0.3-0.4-0.6-0.8-0.8-1.4C40.1,61,40,60.5,40,59.9z M42.1,59.7v0.2
	c0,0.4,0,0.7,0.1,1c0.1,0.3,0.2,0.6,0.3,0.9c0.2,0.2,0.3,0.4,0.6,0.6c0.2,0.1,0.5,0.2,0.9,0.2c0.3,0,0.6-0.1,0.9-0.2
	c0.2-0.1,0.4-0.3,0.6-0.6c0.2-0.2,0.3-0.5,0.3-0.9c0.1-0.3,0.1-0.7,0.1-1v-0.2c0-0.4,0-0.7-0.1-1c-0.1-0.3-0.2-0.6-0.3-0.9
	c-0.2-0.3-0.3-0.4-0.6-0.6C44.6,57.1,44.3,57,44,57c-0.3,0-0.6,0.1-0.9,0.2c-0.2,0.1-0.4,0.3-0.6,0.6c-0.2,0.2-0.3,0.5-0.3,0.9
	C42.1,59,42.1,59.3,42.1,59.7z M54.1,61.7c0-0.2,0-0.3-0.1-0.5c-0.1-0.1-0.3-0.3-0.5-0.4c-0.3-0.1-0.6-0.2-1.1-0.3
	c-0.4-0.1-0.8-0.2-1.2-0.4c-0.4-0.1-0.7-0.3-1-0.5c-0.3-0.2-0.5-0.4-0.6-0.7c-0.1-0.3-0.2-0.6-0.2-1c0-0.3,0.1-0.7,0.2-1
	c0.2-0.3,0.4-0.6,0.7-0.8c0.3-0.2,0.6-0.4,1-0.6c0.4-0.1,0.9-0.2,1.4-0.2c0.7,0,1.3,0.1,1.9,0.4c0.5,0.2,0.9,0.6,1.2,1
	c0.3,0.4,0.4,0.9,0.4,1.4H54c0-0.2-0.1-0.4-0.2-0.6c-0.1-0.2-0.3-0.3-0.5-0.4c-0.2-0.1-0.5-0.2-0.8-0.2c-0.3,0-0.5,0-0.7,0.1
	c-0.2,0.1-0.3,0.2-0.4,0.4s-0.1,0.3-0.1,0.5c0,0.1,0,0.3,0.1,0.4c0.1,0.1,0.1,0.2,0.3,0.3c0.1,0.1,0.3,0.2,0.5,0.2
	c0.2,0.1,0.5,0.1,0.8,0.2c0.6,0.1,1.2,0.3,1.6,0.5c0.5,0.2,0.8,0.5,1.1,0.8c0.3,0.3,0.4,0.8,0.4,1.3c0,0.4-0.1,0.7-0.2,1
	c-0.2,0.3-0.4,0.6-0.7,0.8c-0.3,0.2-0.7,0.4-1.1,0.5c-0.4,0.1-0.9,0.2-1.4,0.2c-0.8,0-1.4-0.1-2-0.4c-0.5-0.3-0.9-0.6-1.2-1.1
	c-0.3-0.4-0.4-0.9-0.4-1.3h2c0,0.3,0.1,0.6,0.3,0.8c0.2,0.2,0.4,0.3,0.6,0.4c0.3,0.1,0.5,0.1,0.8,0.1c0.3,0,0.6,0,0.8-0.1
	c0.2-0.1,0.4-0.2,0.5-0.4C54,62.1,54.1,61.9,54.1,61.7z"/>
<path class="st0" d="M32.7,33.3c0,0.7,0,1.4,0,2.2c0,0.2,0,0.4-0.1,0.6s-0.2,0.3-0.3,0.5c-0.1,0.1-0.3,0.3-0.5,0.3
	c-0.2,0.1-0.4,0.1-0.6,0.1c-1.5,0-3,0-4.5,0c-0.2,0-0.4,0-0.6-0.1c-0.2-0.1-0.3-0.2-0.5-0.3c-0.1-0.1-0.2-0.3-0.3-0.5
	c-0.1-0.2-0.1-0.4-0.1-0.6c0-1.5,0-2.9,0-4.4c0-0.2,0-0.4,0.1-0.6c0.1-0.2,0.2-0.3,0.3-0.5c0.1-0.1,0.3-0.2,0.5-0.3
	c0.2-0.1,0.4-0.1,0.6-0.1c1.5,0,3,0,4.5,0c0.2,0,0.4,0,0.6,0.1c0.2,0.1,0.3,0.2,0.5,0.3c0.1,0.1,0.2,0.3,0.3,0.5
	c0.1,0.2,0.1,0.4,0.1,0.6L32.7,33.3L32.7,33.3z"/>
<path class="st0" d="M25.3,21.5c0-0.7,0-1.4,0-2.1c0-0.2,0-0.4,0.1-0.6c0.1-0.2,0.2-0.4,0.3-0.5c0.1-0.1,0.3-0.3,0.5-0.3
	c0.2-0.1,0.4-0.1,0.6-0.1c1.5,0,3,0,4.4,0c0.2,0,0.4,0,0.6,0.1c0.2,0.1,0.4,0.2,0.5,0.3c0.1,0.1,0.2,0.3,0.3,0.5
	c0.1,0.2,0.1,0.4,0.1,0.6c0,1.4,0,2.9,0,4.3c0,0.2,0,0.4-0.1,0.6c-0.1,0.2-0.2,0.4-0.3,0.5c-0.1,0.1-0.3,0.3-0.5,0.3
	c-0.2,0.1-0.4,0.1-0.6,0.1c-1.5,0-2.9,0-4.4,0c-0.2,0-0.4,0-0.6-0.1c-0.2-0.1-0.3-0.2-0.5-0.3c-0.1-0.1-0.2-0.3-0.3-0.5
	s-0.1-0.4-0.1-0.6C25.3,23,25.3,22.3,25.3,21.5z"/>
<path class="st0" d="M40.2,25.3c-0.7,0-1.4,0-2.1,0c-0.2,0-0.4,0-0.6-0.1c-0.2-0.1-0.4-0.2-0.5-0.3c-0.1-0.1-0.3-0.3-0.3-0.5
	c-0.1-0.2-0.1-0.4-0.1-0.6c0-1.4,0-2.9,0-4.3c0-0.2,0-0.4,0.1-0.6s0.2-0.4,0.3-0.5c0.1-0.1,0.3-0.3,0.5-0.3c0.2-0.1,0.4-0.1,0.6-0.1
	c1.4,0,2.9,0,4.3,0c0.2,0,0.4,0,0.6,0.1c0.2,0.1,0.4,0.2,0.5,0.3c0.1,0.1,0.3,0.3,0.3,0.5c0.1,0.2,0.1,0.4,0.1,0.6
	c0,1.5,0,2.9,0,4.4c0,0.2,0,0.4-0.1,0.6c-0.1,0.2-0.2,0.4-0.3,0.5c-0.1,0.1-0.3,0.3-0.5,0.3c-0.2,0.1-0.4,0.1-0.6,0.1
	c-0.4,0-0.7,0-1.1,0H40.2z"/>
<path class="st0" d="M36.5,33.3c0-0.7,0-1.4,0-2.1c0-0.2,0-0.4,0.1-0.6c0.1-0.2,0.2-0.4,0.3-0.5c0.1-0.1,0.3-0.3,0.5-0.3
	c0.2-0.1,0.4-0.1,0.6-0.1c1.4,0,2.9,0,4.3,0c0.2,0,0.4,0,0.6,0.1c0.2,0.1,0.4,0.2,0.5,0.3c0.1,0.1,0.3,0.3,0.3,0.5
	c0.1,0.2,0.1,0.4,0.1,0.6c0,1.5,0,2.9,0,4.4c0,0.2,0,0.4-0.1,0.6c-0.1,0.2-0.2,0.3-0.3,0.5c-0.1,0.1-0.3,0.3-0.5,0.3
	S42.6,37,42.4,37c-1.5,0-2.9,0-4.4,0c-0.2,0-0.4,0-0.6-0.1c-0.2-0.1-0.3-0.2-0.5-0.3c-0.1-0.1-0.2-0.3-0.3-0.5
	c-0.1-0.2-0.1-0.4-0.1-0.6L36.5,33.3L36.5,33.3z"/>
<path class="st0" d="M17.8,29.6c0.7,0,1.4,0,2.1,0c0.2,0,0.4,0,0.6,0.1c0.2,0.1,0.4,0.2,0.5,0.3c0.1,0.1,0.3,0.3,0.3,0.5
	c0.1,0.2,0.1,0.4,0.1,0.6c0,1.4,0,2.8,0,4.2c0,0.2,0,0.4-0.1,0.6c-0.1,0.2-0.2,0.4-0.3,0.5c-0.1,0.1-0.3,0.3-0.5,0.3
	C20.4,37,20.2,37,20,37c-1.4,0-2.9,0-4.3,0c-0.2,0-0.4,0-0.6-0.1s-0.4-0.2-0.5-0.3c-0.1-0.1-0.3-0.3-0.3-0.5
	c-0.1-0.2-0.1-0.4-0.1-0.6c0-1.4,0-2.8,0-4.2c0-0.2,0-0.4,0.1-0.6s0.2-0.4,0.3-0.5c0.1-0.1,0.3-0.3,0.5-0.3c0.2-0.1,0.4-0.1,0.6-0.1
	C16.4,29.6,17.1,29.6,17.8,29.6z"/>
<path class="st0" d="M42.5,4.3c0,0.8,0,1.6,0,2.3c0,0.2,0,0.5-0.1,0.7C42.3,7.6,42.2,7.8,42,8c-0.2,0.2-0.4,0.3-0.6,0.4
	c-0.2,0.1-0.5,0.1-0.7,0.1S40.2,8.5,40,8.4c-0.2-0.1-0.4-0.2-0.6-0.4c-0.2-0.2-0.3-0.4-0.4-0.6c-0.1-0.2-0.1-0.5-0.1-0.7
	c0-1.6,0-3.1,0-4.7c0-0.2,0-0.5,0.1-0.7c0.1-0.2,0.2-0.4,0.4-0.6c0.2-0.2,0.4-0.3,0.6-0.4c0.2-0.1,0.5-0.1,0.7-0.1s0.5,0,0.7,0.1
	c0.2,0.1,0.4,0.2,0.6,0.4c0.2,0.2,0.3,0.4,0.4,0.6c0.1,0.2,0.1,0.5,0.1,0.7C42.5,2.7,42.5,3.5,42.5,4.3z"/>
<path class="st0" d="M15.5,4.3c0-0.8,0-1.6,0-2.4c0-0.2,0-0.5,0.1-0.7c0.1-0.2,0.2-0.4,0.4-0.6c0.2-0.2,0.4-0.3,0.6-0.4
	C16.8,0,17.1,0,17.3,0c0.2,0,0.5,0.1,0.7,0.1c0.2,0.1,0.4,0.2,0.6,0.4c0.2,0.2,0.3,0.4,0.4,0.6c0.1,0.2,0.1,0.5,0.1,0.7
	c0,1.6,0,3.2,0,4.8c0,0.2,0,0.5-0.1,0.7c-0.1,0.2-0.2,0.4-0.4,0.6c-0.2,0.2-0.4,0.3-0.6,0.4c-0.2,0.1-0.5,0.1-0.7,0.1
	s-0.5,0-0.7-0.1C16.4,8.3,16.2,8.2,16,8c-0.2-0.2-0.3-0.4-0.4-0.6c-0.1-0.2-0.1-0.5-0.1-0.7c0,0,0-0.1,0-0.1V4.3z"/>
<path class="st0" d="M13.6,4.3c0,0.9,0,1.7,0,2.6c0,1,0.5,1.9,1.2,2.6c0.7,0.7,1.7,1,2.6,1c1,0,1.9-0.4,2.6-1.1
	C20.6,8.6,21,7.7,21,6.7c0-0.8,0-1.6,0-2.4H37c0,0.2,0,0.3,0,0.5c0,0.8,0,1.6,0.1,2.5c0.1,0.9,0.6,1.8,1.3,2.4
	c0.7,0.6,1.6,0.9,2.6,0.8c0.9-0.1,1.8-0.5,2.5-1.1c0.7-0.7,1-1.6,1.1-2.5c0-0.8,0-1.7,0-2.5c1.3,0,2.6-0.1,3.9,0
	C49.8,4.6,50.9,6,51,7.5c0,0.2,0,0.3,0,0.5v32.5c0,1.8-1,3.1-2.5,3.5c-0.3,0.1-0.6,0.1-1,0.1h-37c-0.5,0-0.9-0.1-1.4-0.2
	c-0.4-0.2-0.8-0.4-1.1-0.7c-0.3-0.3-0.6-0.7-0.8-1.1C7.1,41.5,7,41,7,40.6c0-11,0-21.9,0-32.9c0-0.5,0.1-0.9,0.2-1.3
	C7.4,6,7.7,5.6,8,5.3c0.3-0.3,0.7-0.6,1.1-0.7c0.4-0.2,0.9-0.3,1.3-0.2C11.5,4.3,12.5,4.3,13.6,4.3z M29,13.6c-6.2,0-12.4,0-18.6,0
	c-0.4,0-0.5,0.1-0.5,0.5c0,8.3,0,16.7,0,25c0,1.3,0.7,2,2,2h34.4c1.3,0,2-0.7,2-2c0-8.3,0-16.7,0-25c0-0.4-0.1-0.5-0.5-0.5
	C41.4,13.7,35.2,13.7,29,13.6L29,13.6z"/>
</svg>
