<?xml version="1.0" encoding="utf-8"?>
<!-- Generator: Adobe Illustrator 24.0.1, SVG Export Plug-In . SVG Version: 6.00 Build 0)  -->
<svg version="1.1" id="Camada_1" xmlns="http://www.w3.org/2000/svg" xmlns:xlink="http://www.w3.org/1999/xlink" x="0px" y="0px"
	 viewBox="0 0 47 70" style="enable-background:new 0 0 47 70;" xml:space="preserve">
<style type="text/css">
	.st0{fill:#65B6DB;}
</style>
<path class="st0" d="M9.6,59.3V61h-6v-1.7H9.6z M4.2,54.6V66H2.1V54.6H4.2z M11.2,54.6V66H9.1V54.6H11.2z M12.9,61.9v-0.2
	c0-0.6,0.1-1.2,0.3-1.7s0.4-1,0.8-1.4c0.3-0.4,0.8-0.7,1.2-0.9c0.5-0.2,1-0.3,1.7-0.3c0.6,0,1.2,0.1,1.7,0.3s0.9,0.5,1.3,0.9
	c0.3,0.4,0.6,0.8,0.8,1.4c0.2,0.5,0.3,1.1,0.3,1.7v0.2c0,0.6-0.1,1.2-0.3,1.7c-0.2,0.5-0.4,1-0.8,1.4c-0.3,0.4-0.8,0.7-1.2,0.9
	c-0.5,0.2-1,0.3-1.7,0.3c-0.6,0-1.2-0.1-1.7-0.3c-0.5-0.2-0.9-0.5-1.3-0.9c-0.3-0.4-0.6-0.8-0.8-1.4C13,63,12.9,62.5,12.9,61.9z
	 M15,61.7v0.2c0,0.4,0,0.7,0.1,1s0.2,0.6,0.3,0.9c0.2,0.2,0.3,0.4,0.6,0.6c0.2,0.1,0.5,0.2,0.9,0.2c0.3,0,0.6-0.1,0.9-0.2
	c0.2-0.1,0.4-0.3,0.6-0.6c0.2-0.2,0.3-0.5,0.3-0.9c0.1-0.3,0.1-0.7,0.1-1v-0.2c0-0.4,0-0.7-0.1-1s-0.2-0.6-0.3-0.9
	c-0.2-0.3-0.3-0.4-0.6-0.6c-0.2-0.1-0.5-0.2-0.9-0.2c-0.3,0-0.6,0.1-0.9,0.2c-0.2,0.1-0.4,0.3-0.6,0.6c-0.2,0.2-0.3,0.5-0.3,0.9
	C15,61,15,61.3,15,61.7z M24.4,59.3V66h-2.1v-8.5h1.9L24.4,59.3z M24.1,61.5h-0.6c0-0.6,0.1-1.1,0.2-1.6s0.4-0.9,0.6-1.3
	c0.3-0.4,0.6-0.7,1-0.9s0.9-0.3,1.4-0.3c0.4,0,0.7,0.1,1,0.2c0.3,0.1,0.6,0.3,0.8,0.5c0.2,0.2,0.4,0.5,0.5,0.9s0.2,0.8,0.2,1.4V66
	h-2.1v-5.4c0-0.4-0.1-0.7-0.2-0.9s-0.3-0.4-0.5-0.5s-0.5-0.1-0.8-0.1s-0.6,0.1-0.8,0.2c-0.2,0.1-0.4,0.3-0.6,0.5
	c-0.1,0.2-0.3,0.5-0.3,0.8C24.1,60.8,24.1,61.1,24.1,61.5z M29.2,61.1l-0.9,0.2c0-0.5,0.1-1,0.2-1.5s0.3-0.9,0.6-1.2
	c0.3-0.4,0.6-0.6,1-0.8s0.9-0.3,1.4-0.3c0.4,0,0.8,0.1,1.1,0.2c0.3,0.1,0.6,0.3,0.9,0.6c0.2,0.3,0.4,0.6,0.5,1s0.2,0.9,0.2,1.5V66
	h-2.1v-5.4c0-0.4-0.1-0.7-0.2-0.9c-0.1-0.2-0.3-0.4-0.5-0.5s-0.5-0.1-0.7-0.1c-0.3,0-0.5,0.1-0.8,0.2c-0.2,0.1-0.4,0.3-0.5,0.4
	c-0.1,0.2-0.2,0.4-0.3,0.7C29.2,60.5,29.2,60.8,29.2,61.1z M40,66.2c-0.6,0-1.2-0.1-1.7-0.3c-0.5-0.2-0.9-0.5-1.3-0.9
	c-0.4-0.4-0.6-0.8-0.8-1.3c-0.2-0.5-0.3-1-0.3-1.6v-0.3c0-0.7,0.1-1.2,0.3-1.8c0.2-0.5,0.5-1,0.8-1.4s0.8-0.7,1.2-0.9
	c0.5-0.2,1-0.3,1.6-0.3s1.1,0.1,1.6,0.3s0.8,0.5,1.1,0.8c0.3,0.4,0.5,0.8,0.7,1.3s0.2,1.1,0.2,1.7v0.9h-6.6V61h4.6v-0.2
	c0-0.3-0.1-0.6-0.2-0.9c-0.1-0.3-0.3-0.5-0.5-0.7s-0.5-0.3-0.9-0.3c-0.3,0-0.6,0.1-0.8,0.2c-0.2,0.1-0.4,0.3-0.6,0.6
	c-0.1,0.2-0.3,0.5-0.3,0.9C38,61,38,61.3,38,61.7V62c0,0.4,0,0.7,0.1,1s0.2,0.6,0.4,0.8s0.4,0.4,0.7,0.5c0.3,0.1,0.6,0.2,0.9,0.2
	c0.4,0,0.8-0.1,1.2-0.3c0.4-0.2,0.7-0.4,0.9-0.8l1,1.1c-0.2,0.3-0.4,0.5-0.7,0.8c-0.3,0.2-0.7,0.4-1.1,0.6
	C41.1,66.1,40.6,66.2,40,66.2z"/>
<g>
	<g>
		<g>
			<path class="st0" d="M44.3,22.2H2.6c0.1-0.1,0.2-0.2,0.2-0.3l20-19.5c0.4-0.4,0.4-0.4,0.8,0l20.2,19.3
				C43.9,21.9,44.1,22,44.3,22.2z"/>
			<path class="st0" d="M23.4,23.8h17.5c0.5,0,0.5,0,0.5,0.5c0,7.2,0,14.4,0,21.6c0,0.4-0.1,0.5-0.5,0.5c-1,0-1.9,0-2.9,0
				c-0.4,0-0.5-0.1-0.5-0.5c0-6.4,0-12.8,0-19.2c0-0.6,0-0.6-0.5-0.6c-4.3,0-8.6,0-12.9,0c-0.4,0-0.5,0.1-0.5,0.5
				c0,6.4,0,12.8,0,19.2c0,0.5,0,0.6-0.5,0.6c-5.8,0-11.5,0-17.3,0c-0.4,0-0.5-0.1-0.5-0.5c0-7.2,0-14.4,0-21.6c0-0.5,0-0.5,0.5-0.5
				L23.4,23.8z M14.4,28.6c-1.7,0-3.5,0-5.2,0c-0.4,0-0.5,0.1-0.5,0.5c0,3.4,0,6.8,0,10.2c0,0.3,0.1,0.5,0.5,0.5c3.5,0,7,0,10.5,0
				c0.4,0,0.5-0.1,0.4-0.5c0-3.4,0-6.9,0-10.3c0-0.3-0.1-0.4-0.4-0.4C17.9,28.6,16.1,28.6,14.4,28.6z"/>
			<path class="st0" d="M25.3,37c0-2.9,0-5.8,0-8.7c0-0.4,0.1-0.5,0.5-0.5c3.3,0,6.5,0,9.7,0c0.4,0,0.5,0.1,0.5,0.5
				c0,5.8,0,11.6,0,17.4c0,0.4-0.1,0.5-0.5,0.5c-3.2,0-6.5,0-9.7,0c-0.4,0-0.5-0.1-0.5-0.5C25.3,42.8,25.3,39.9,25.3,37z"/>
			<path class="st0" d="M12,34.8c0.5,0,0.9,0,1.4,0c0.3,0,0.3,0.1,0.3,0.4c0,0.9,0,1.8,0,2.7c0,0.2-0.1,0.3-0.3,0.3
				c-0.9,0-1.9,0-2.8,0c-0.2,0-0.3-0.1-0.3-0.3c0-0.9,0-1.8,0-2.7c0-0.2,0.1-0.3,0.3-0.3C11,34.7,11.5,34.7,12,34.8L12,34.8z"/>
			<path class="st0" d="M18.5,36.4c0,0.5,0,0.9,0,1.4c0,0.2-0.1,0.3-0.3,0.3c-0.8,0-1.7,0-2.5,0c-0.2,0-0.4-0.1-0.4-0.3
				c0-0.9,0-1.8,0-2.7c0-0.3,0.1-0.4,0.4-0.3c0.8,0,1.6,0,2.5,0c0.3,0,0.4,0.1,0.4,0.4C18.5,35.6,18.5,36.1,18.5,36.4L18.5,36.4z"/>
			<path class="st0" d="M12,30.1c0.5,0,0.9,0,1.4,0c0.3,0,0.4,0.1,0.3,0.4c0,0.8,0,1.6,0,2.4c0,0.3-0.1,0.4-0.3,0.4
				c-0.9,0-1.8,0-2.7,0c-0.3,0-0.4-0.1-0.4-0.4c0-0.8,0-1.6,0-2.3c0-0.3,0.1-0.4,0.4-0.4C11.1,30.1,11.6,30.1,12,30.1L12,30.1z"/>
			<path class="st0" d="M16.9,33.2c-0.4,0-0.8,0-1.3,0c-0.3,0-0.3-0.1-0.3-0.4c0-0.8,0-1.6,0-2.4c0-0.3,0.1-0.4,0.3-0.4
				c0.8,0,1.7,0,2.5,0c0.2,0,0.4,0.1,0.3,0.4c0,0.8,0,1.6,0,2.4c0,0.3-0.1,0.4-0.4,0.4C17.7,33.2,17.3,33.2,16.9,33.2z"/>
		</g>
	</g>
</g>
</svg>
