<?xml version="1.0" encoding="utf-8"?>
<!-- Generator: Adobe Illustrator 24.0.1, SVG Export Plug-In . SVG Version: 6.00 Build 0)  -->
<svg version="1.1" id="Camada_1" xmlns="http://www.w3.org/2000/svg" xmlns:xlink="http://www.w3.org/1999/xlink" x="0px" y="0px"
	 viewBox="0 0 58 67" style="enable-background:new 0 0 58 67;" xml:space="preserve">
<style type="text/css">
	.st0{fill:#65B6DB;}
</style>
<path class="st0" d="M8.5,63H6l0-1.7h2.4c0.7,0,1.2-0.1,1.7-0.4c0.4-0.3,0.8-0.7,1-1.3c0.2-0.6,0.3-1.2,0.3-2V57
	c0-0.6-0.1-1.1-0.2-1.6c-0.1-0.5-0.3-0.8-0.6-1.2c-0.3-0.3-0.6-0.5-0.9-0.7c-0.4-0.2-0.8-0.2-1.3-0.2H6v-1.7h2.5
	c0.8,0,1.5,0.1,2.1,0.4c0.6,0.3,1.2,0.6,1.6,1.1c0.5,0.5,0.8,1,1.1,1.7c0.3,0.7,0.4,1.4,0.4,2.2v0.6c0,0.8-0.1,1.6-0.4,2.2
	c-0.2,0.7-0.6,1.2-1.1,1.7c-0.5,0.5-1,0.8-1.6,1.1C10,62.9,9.3,63,8.5,63z M7.2,51.6V63H5.1V51.6H7.2z M17.5,54.5V63h-2.1v-8.5H17.5
	z M15.3,52.3c0-0.3,0.1-0.6,0.3-0.8c0.2-0.2,0.5-0.3,0.9-0.3s0.6,0.1,0.9,0.3c0.2,0.2,0.3,0.5,0.3,0.8c0,0.3-0.1,0.6-0.3,0.8
	c-0.2,0.2-0.5,0.3-0.9,0.3s-0.6-0.1-0.9-0.3C15.4,52.9,15.3,52.6,15.3,52.3z M24.2,60.7c0-0.2,0-0.3-0.1-0.5
	c-0.1-0.1-0.3-0.3-0.5-0.4c-0.3-0.1-0.6-0.2-1.1-0.3c-0.4-0.1-0.8-0.2-1.2-0.4c-0.4-0.1-0.7-0.3-1-0.5c-0.3-0.2-0.5-0.4-0.6-0.7
	c-0.1-0.3-0.2-0.6-0.2-1c0-0.3,0.1-0.7,0.2-1c0.2-0.3,0.4-0.6,0.7-0.8c0.3-0.2,0.6-0.4,1-0.6c0.4-0.1,0.9-0.2,1.4-0.2
	c0.7,0,1.3,0.1,1.9,0.4c0.5,0.2,0.9,0.6,1.2,1c0.3,0.4,0.4,0.9,0.4,1.4h-2.1c0-0.2-0.1-0.4-0.2-0.6c-0.1-0.2-0.3-0.3-0.5-0.4
	c-0.2-0.1-0.5-0.2-0.8-0.2c-0.3,0-0.5,0-0.7,0.1c-0.2,0.1-0.3,0.2-0.4,0.4s-0.1,0.3-0.1,0.5c0,0.1,0,0.3,0.1,0.4
	c0.1,0.1,0.1,0.2,0.3,0.3c0.1,0.1,0.3,0.2,0.5,0.2c0.2,0.1,0.5,0.1,0.8,0.2c0.6,0.1,1.2,0.3,1.6,0.5c0.5,0.2,0.8,0.5,1.1,0.8
	c0.3,0.3,0.4,0.8,0.4,1.3c0,0.4-0.1,0.7-0.2,1c-0.2,0.3-0.4,0.6-0.7,0.8c-0.3,0.2-0.7,0.4-1.1,0.5c-0.4,0.1-0.9,0.2-1.4,0.2
	c-0.8,0-1.4-0.1-2-0.4c-0.5-0.3-0.9-0.6-1.2-1.1c-0.3-0.4-0.4-0.9-0.4-1.3h2c0,0.3,0.1,0.6,0.3,0.8c0.2,0.2,0.4,0.3,0.6,0.4
	c0.3,0.1,0.5,0.1,0.8,0.1c0.3,0,0.6,0,0.8-0.1c0.2-0.1,0.4-0.2,0.5-0.4C24.1,61.1,24.2,60.9,24.2,60.7z M32.8,66.2v-10l0.3-1.7h1.8
	v11.7H32.8z M27.4,58.9v-0.2c0-0.6,0.1-1.2,0.2-1.8c0.1-0.5,0.4-1,0.6-1.4c0.3-0.4,0.6-0.7,1-0.9c0.4-0.2,0.9-0.3,1.4-0.3
	c0.5,0,1,0.1,1.4,0.3c0.4,0.2,0.7,0.5,1,0.9c0.3,0.4,0.5,0.8,0.6,1.3c0.2,0.5,0.3,1.1,0.4,1.7V59c-0.1,0.6-0.2,1.1-0.4,1.6
	c-0.2,0.5-0.4,0.9-0.6,1.3c-0.3,0.4-0.6,0.7-1,0.9c-0.4,0.2-0.8,0.3-1.4,0.3s-1-0.1-1.4-0.3c-0.4-0.2-0.8-0.5-1-0.9
	c-0.3-0.4-0.5-0.8-0.6-1.4C27.5,60,27.4,59.5,27.4,58.9z M29.5,58.7v0.2c0,0.4,0,0.7,0.1,1c0.1,0.3,0.2,0.6,0.3,0.8s0.3,0.4,0.5,0.6
	c0.2,0.1,0.5,0.2,0.8,0.2c0.4,0,0.8-0.1,1-0.3c0.3-0.2,0.5-0.4,0.6-0.8c0.1-0.3,0.2-0.7,0.3-1.1v-1.2c0-0.3-0.1-0.6-0.2-0.9
	c-0.1-0.3-0.2-0.5-0.4-0.7c-0.1-0.2-0.3-0.3-0.6-0.5c-0.2-0.1-0.5-0.2-0.8-0.2c-0.3,0-0.6,0.1-0.8,0.2c-0.2,0.1-0.4,0.3-0.5,0.6
	c-0.1,0.2-0.2,0.5-0.3,0.9C29.5,58,29.5,58.3,29.5,58.7z M41.8,61v-6.4h2.1V63h-2L41.8,61z M42.1,59.2l0.6,0c0,0.6-0.1,1.1-0.2,1.6
	c-0.1,0.5-0.3,0.9-0.6,1.3c-0.3,0.3-0.6,0.6-1,0.8c-0.4,0.2-0.9,0.3-1.4,0.3c-0.4,0-0.8-0.1-1.1-0.2c-0.3-0.1-0.6-0.3-0.9-0.6
	c-0.2-0.3-0.4-0.6-0.6-1c-0.1-0.4-0.2-0.9-0.2-1.4v-5.5h2.1V60c0,0.3,0,0.5,0.1,0.7c0.1,0.2,0.2,0.3,0.3,0.5
	c0.1,0.1,0.3,0.2,0.4,0.3c0.2,0,0.3,0.1,0.5,0.1c0.5,0,0.9-0.1,1.2-0.3c0.3-0.2,0.5-0.5,0.6-0.8C42,60.1,42.1,59.7,42.1,59.2z
	 M49.5,63.2c-0.6,0-1.2-0.1-1.7-0.3c-0.5-0.2-0.9-0.5-1.3-0.9c-0.4-0.4-0.6-0.8-0.8-1.3c-0.2-0.5-0.3-1-0.3-1.6v-0.3
	c0-0.7,0.1-1.2,0.3-1.8c0.2-0.5,0.5-1,0.8-1.4c0.3-0.4,0.8-0.7,1.2-0.9c0.5-0.2,1-0.3,1.6-0.3c0.6,0,1.1,0.1,1.6,0.3
	c0.5,0.2,0.8,0.5,1.1,0.8c0.3,0.4,0.5,0.8,0.7,1.3c0.2,0.5,0.2,1.1,0.2,1.7v0.9h-6.6V58h4.6v-0.2c0-0.3-0.1-0.6-0.2-0.9
	c-0.1-0.3-0.3-0.5-0.5-0.7C50,56.1,49.7,56,49.3,56c-0.3,0-0.6,0.1-0.8,0.2c-0.2,0.1-0.4,0.3-0.6,0.6c-0.1,0.2-0.3,0.5-0.3,0.9
	c-0.1,0.3-0.1,0.7-0.1,1.1v0.3c0,0.4,0,0.7,0.1,1c0.1,0.3,0.2,0.6,0.4,0.8c0.2,0.2,0.4,0.4,0.7,0.5c0.3,0.1,0.6,0.2,0.9,0.2
	c0.4,0,0.8-0.1,1.2-0.3c0.4-0.2,0.7-0.4,0.9-0.8l1,1.1c-0.2,0.3-0.4,0.5-0.7,0.8c-0.3,0.2-0.7,0.4-1.1,0.6
	C50.6,63.1,50.1,63.2,49.5,63.2z"/>
<path class="st0" d="M22,28.6c0-1.3,0.4-2.5,1.2-3.6c0.8-1.1,1.9-1.9,3.2-2.4c1.3-0.5,2.7-0.6,4.1-0.4c1.4,0.3,2.6,0.9,3.6,1.8
	c1,0.9,1.6,2.1,1.9,3.3c0.3,1.2,0.1,2.5-0.4,3.7S34,33.2,32.8,34c-1.2,0.7-2.5,1.1-3.9,1.1c-1.9,0-3.6-0.7-4.9-1.9
	C22.7,31.9,22,30.3,22,28.6z"/>
<path class="st0" d="M28.9,0c5-0.1,10,0.4,14.9,1.5c2.9,0.7,5.7,1.6,8.2,3.1c3.2,2,5.2,4.6,5.8,8.2c0.3,2-0.1,4-1.1,5.8
	c-0.6,1-1.2,1.9-2,2.7c-0.4,0.4-0.9,0.7-1.5,0.9c-0.6,0.2-1.2,0.2-1.8,0c-0.6-0.1-1.3-0.3-1.8-0.6c-2.7-1.3-5.5-2.7-8.2-4
	c-0.4-0.2-0.7-0.4-0.9-0.7c-0.2-0.3-0.3-0.7-0.2-1c0.1-0.6,0.2-1.2,0.3-1.7c0.2-0.7,0.5-1.4,0.6-2.1c0.2-0.8,0-1.1-0.7-1.5
	c-1.3-0.7-2.7-1-4.1-1.3c-4.2-1-8.7-1.1-13-0.3c-1.6,0.3-3.1,0.6-4.6,1c-0.5,0.1-1,0.3-1.4,0.6c-0.3,0.1-0.5,0.3-0.6,0.5
	c-0.1,0.2-0.2,0.5-0.1,0.7c0.1,0.5,0.2,0.9,0.3,1.3c0.4,0.9,0.6,1.8,0.6,2.8c0,0.3-0.1,0.7-0.3,1c-0.2,0.3-0.5,0.5-0.8,0.7
	c-1.6,0.8-3.2,1.7-4.8,2.5c-1.7,0.8-3.6,1.5-5.3,2.2c-1.1,0.4-2.1,0.2-3-0.6c-1.8-1.6-3-3.8-3.4-6.1c-0.5-3,0.3-5.6,2.4-7.9
	c2.2-2.5,5.2-4.3,8.5-5.2C16.5,0.7,22.1,0,27.8,0H28.9z"/>
<path class="st0" d="M29,42c-5.5,0-11,0-16.5,0c-0.8,0-1.6-0.1-2.3-0.4c-0.7-0.3-1.4-0.7-1.9-1.2c-0.5-0.5-0.9-1.2-1.2-1.9
	c-0.2-0.7-0.3-1.4-0.2-2.1c0.1-1,0.4-2,0.6-3c0.6-2.7,1.1-5.3,1.7-8c0.4-2.1,1.8-3.4,4.1-3.9c1-0.2,1.9-0.4,2.9-0.5
	c1.2-0.2,2.3-0.9,3.1-1.8c0.8-0.9,1.1-2,1-3.2c-0.1-1.1-0.2-2.1-0.3-3.2c0-0.1,0-0.1,0-0.2c0-0.1,0-0.1,0.1-0.2
	c0-0.1,0.1-0.1,0.1-0.1c0.1,0,0.1-0.1,0.2-0.1c5.1-1.9,10.4-2.2,15.7-0.5c0.6,0.2,1.2,0.4,1.8,0.6c0.1,0,0.2,0.1,0.2,0.1
	c0,0.1,0.1,0.2,0,0.2c-0.1,1.1-0.2,2.1-0.3,3.2c-0.1,1.2,0.2,2.3,1,3.3c0.8,0.9,1.9,1.6,3.1,1.8c1,0.2,1.9,0.4,2.9,0.5
	c2.2,0.4,3.6,1.7,4.1,3.7c0.8,3.6,1.6,7.2,2.3,10.9c0.1,0.7,0.1,1.5-0.1,2.2c-0.2,0.7-0.6,1.4-1.1,2c-0.5,0.6-1.2,1-1.9,1.4
	c-0.7,0.3-1.6,0.5-2.4,0.5C40.1,42,34.5,42,29,42z M19.5,28.6c0,1.7,0.6,3.4,1.6,4.8c1,1.4,2.5,2.5,4.3,3.2c1.7,0.7,3.6,0.8,5.5,0.5
	c1.8-0.3,3.5-1.2,4.9-2.4c1.3-1.2,2.2-2.8,2.6-4.4c0.4-1.7,0.2-3.4-0.5-5c-0.7-1.6-1.9-2.9-3.5-3.9c-1.6-1-3.4-1.5-5.3-1.5
	c-1.2,0-2.5,0.2-3.6,0.7c-1.2,0.4-2.2,1.1-3.1,1.9c-0.9,0.8-1.6,1.8-2.1,2.8C19.7,26.3,19.5,27.5,19.5,28.6z"/>
</svg>
