<?xml version="1.0" encoding="utf-8"?>
<!-- Generator: Adobe Illustrator 24.0.1, SVG Export Plug-In . SVG Version: 6.00 Build 0)  -->
<svg version="1.1" id="Camada_1" xmlns="http://www.w3.org/2000/svg" xmlns:xlink="http://www.w3.org/1999/xlink" x="0px" y="0px"
	 viewBox="0 0 53 67" style="enable-background:new 0 0 53 67;" xml:space="preserve">
<style type="text/css">
	.st0{fill:#65B6DB;}
</style>
<path class="st0" d="M11,60c0-0.2,0-0.4-0.1-0.6c-0.1-0.2-0.2-0.3-0.4-0.5c-0.2-0.1-0.4-0.3-0.7-0.4c-0.3-0.1-0.7-0.3-1.2-0.4
	c-0.5-0.2-1-0.4-1.5-0.6S6.4,57.1,6,56.8c-0.3-0.3-0.6-0.6-0.8-1c-0.2-0.4-0.3-0.8-0.3-1.3c0-0.5,0.1-0.9,0.3-1.3
	c0.2-0.4,0.5-0.7,0.9-1c0.4-0.3,0.8-0.5,1.3-0.6c0.5-0.2,1.1-0.2,1.7-0.2c0.8,0,1.6,0.2,2.2,0.5c0.6,0.3,1.1,0.7,1.4,1.3
	c0.3,0.5,0.5,1.1,0.5,1.8H11c0-0.4-0.1-0.7-0.2-0.9c-0.1-0.3-0.4-0.5-0.7-0.6c-0.3-0.2-0.7-0.2-1.1-0.2c-0.4,0-0.8,0.1-1.1,0.2
	c-0.3,0.1-0.5,0.3-0.6,0.5c-0.1,0.2-0.2,0.5-0.2,0.8c0,0.2,0,0.4,0.1,0.6c0.1,0.2,0.2,0.3,0.4,0.5c0.2,0.1,0.4,0.3,0.7,0.4
	c0.3,0.1,0.6,0.2,1,0.4c0.6,0.2,1.2,0.4,1.6,0.6c0.5,0.2,0.9,0.5,1.2,0.8c0.3,0.3,0.6,0.6,0.7,1c0.2,0.4,0.2,0.8,0.2,1.2
	c0,0.5-0.1,0.9-0.3,1.3c-0.2,0.4-0.5,0.7-0.8,1c-0.4,0.3-0.8,0.5-1.3,0.6c-0.5,0.1-1.1,0.2-1.7,0.2c-0.6,0-1.1-0.1-1.6-0.2
	c-0.5-0.2-1-0.4-1.5-0.7c-0.4-0.3-0.8-0.7-1-1.1c-0.3-0.5-0.4-1-0.4-1.6h2.2c0,0.4,0.1,0.7,0.2,0.9C7,60.7,7.2,60.9,7.4,61
	c0.2,0.2,0.5,0.3,0.8,0.3c0.3,0.1,0.6,0.1,0.9,0.1c0.4,0,0.8-0.1,1.1-0.2c0.3-0.1,0.5-0.3,0.6-0.5C11,60.6,11,60.3,11,60z
	 M14.3,58.9v-0.2c0-0.6,0.1-1.2,0.3-1.7c0.2-0.5,0.4-1,0.8-1.4c0.3-0.4,0.8-0.7,1.2-0.9c0.5-0.2,1-0.3,1.7-0.3
	c0.6,0,1.2,0.1,1.7,0.3c0.5,0.2,0.9,0.5,1.3,0.9c0.3,0.4,0.6,0.8,0.8,1.4c0.2,0.5,0.3,1.1,0.3,1.7v0.2c0,0.6-0.1,1.2-0.3,1.7
	c-0.2,0.5-0.4,1-0.8,1.4c-0.3,0.4-0.8,0.7-1.2,0.9c-0.5,0.2-1,0.3-1.7,0.3c-0.6,0-1.2-0.1-1.7-0.3c-0.5-0.2-0.9-0.5-1.3-0.9
	c-0.3-0.4-0.6-0.8-0.8-1.4C14.4,60,14.3,59.5,14.3,58.9z M16.4,58.7v0.2c0,0.4,0,0.7,0.1,1c0.1,0.3,0.2,0.6,0.3,0.9
	c0.2,0.2,0.3,0.4,0.6,0.6c0.2,0.1,0.5,0.2,0.9,0.2c0.3,0,0.6-0.1,0.9-0.2c0.2-0.1,0.4-0.3,0.6-0.6c0.2-0.2,0.3-0.5,0.3-0.9
	c0.1-0.3,0.1-0.7,0.1-1v-0.2c0-0.4,0-0.7-0.1-1c-0.1-0.3-0.2-0.6-0.3-0.9c-0.2-0.3-0.3-0.4-0.6-0.6c-0.2-0.1-0.5-0.2-0.9-0.2
	c-0.3,0-0.6,0.1-0.9,0.2c-0.2,0.1-0.4,0.3-0.6,0.6c-0.2,0.2-0.3,0.5-0.3,0.9C16.4,58,16.4,58.3,16.4,58.7z M27.2,61.5
	c0.3,0,0.6-0.1,0.8-0.2c0.2-0.1,0.4-0.3,0.5-0.5c0.1-0.2,0.2-0.5,0.2-0.7h1.9c0,0.6-0.2,1.1-0.5,1.5s-0.7,0.8-1.3,1.1
	c-0.5,0.3-1.1,0.4-1.7,0.4c-0.7,0-1.2-0.1-1.7-0.3c-0.5-0.2-0.9-0.5-1.2-0.9c-0.3-0.4-0.6-0.8-0.7-1.4c-0.2-0.5-0.2-1.1-0.2-1.7
	v-0.3c0-0.6,0.1-1.1,0.2-1.7c0.2-0.5,0.4-1,0.7-1.4c0.3-0.4,0.7-0.7,1.2-0.9c0.5-0.2,1-0.3,1.7-0.3c0.7,0,1.3,0.1,1.8,0.4
	c0.5,0.3,0.9,0.6,1.2,1.1c0.3,0.5,0.5,1.1,0.5,1.7h-1.9c0-0.3-0.1-0.6-0.2-0.8s-0.3-0.4-0.5-0.6c-0.2-0.1-0.5-0.2-0.8-0.2
	c-0.3,0-0.6,0.1-0.9,0.2c-0.2,0.1-0.4,0.3-0.5,0.6c-0.1,0.3-0.2,0.5-0.3,0.8c0,0.3-0.1,0.6-0.1,1v0.3c0,0.3,0,0.7,0.1,1
	c0.1,0.3,0.1,0.6,0.3,0.8c0.1,0.2,0.3,0.4,0.5,0.6C26.6,61.5,26.9,61.5,27.2,61.5z M34.3,54.5V63h-2.1v-8.5H34.3z M32.1,52.3
	c0-0.3,0.1-0.6,0.3-0.8c0.2-0.2,0.5-0.3,0.9-0.3s0.6,0.1,0.9,0.3c0.2,0.2,0.3,0.5,0.3,0.8c0,0.3-0.1,0.6-0.3,0.8
	c-0.2,0.2-0.5,0.3-0.9,0.3s-0.6-0.1-0.9-0.3C32.2,52.9,32.1,52.6,32.1,52.3z M40.9,61.2v-3.9c0-0.3,0-0.5-0.1-0.7
	c-0.1-0.2-0.3-0.4-0.5-0.5c-0.2-0.1-0.5-0.2-0.8-0.2c-0.3,0-0.5,0-0.7,0.1c-0.2,0.1-0.4,0.2-0.5,0.4c-0.1,0.2-0.2,0.4-0.2,0.6h-2.1
	c0-0.3,0.1-0.7,0.3-1c0.2-0.3,0.4-0.6,0.7-0.8c0.3-0.3,0.7-0.4,1.1-0.6c0.4-0.1,0.9-0.2,1.5-0.2c0.6,0,1.2,0.1,1.7,0.3
	c0.5,0.2,0.9,0.5,1.2,1c0.3,0.4,0.4,1,0.4,1.6V61c0,0.4,0,0.8,0.1,1.1c0.1,0.3,0.1,0.6,0.3,0.8V63h-2.1c-0.1-0.2-0.2-0.5-0.2-0.8
	C40.9,61.9,40.9,61.5,40.9,61.2z M41.2,57.9l0,1.2h-1.3c-0.3,0-0.6,0-0.9,0.1c-0.2,0.1-0.4,0.2-0.6,0.3c-0.2,0.1-0.3,0.3-0.4,0.4
	C38,60.1,38,60.3,38,60.5c0,0.2,0,0.4,0.1,0.6c0.1,0.2,0.2,0.3,0.4,0.4c0.2,0.1,0.4,0.1,0.7,0.1c0.4,0,0.7-0.1,1-0.2
	c0.3-0.2,0.5-0.3,0.6-0.5c0.2-0.2,0.2-0.4,0.2-0.6l0.6,0.9c-0.1,0.2-0.2,0.4-0.3,0.7c-0.1,0.2-0.3,0.5-0.6,0.7
	c-0.2,0.2-0.5,0.4-0.8,0.5c-0.3,0.1-0.7,0.2-1.1,0.2c-0.5,0-1-0.1-1.5-0.3c-0.4-0.2-0.8-0.5-1-0.9s-0.4-0.8-0.4-1.3
	c0-0.4,0.1-0.8,0.3-1.2c0.2-0.3,0.4-0.6,0.7-0.9c0.3-0.2,0.7-0.4,1.2-0.5c0.5-0.1,1-0.2,1.7-0.2H41.2z M47,51v12H45V51H47z"/>
<path class="st0" d="M4.9,6.6c0-3.9,3-6.8,6.5-6.6c0.9,0,1.8,0.3,2.6,0.7c0.8,0.4,1.5,1,2,1.7C16.6,3.2,17,4,17.1,4.9
	c0.2,0.9,0.2,1.8,0,2.7c-0.4,1.9-1.4,3.5-2.9,4.6c-0.9,0.7-2,1.1-3.2,1.1c-1.1,0-2.3-0.4-3.1-1.1C7,11.5,6.3,10.7,5.8,9.7
	C5.3,8.8,5,7.7,4.9,6.6z"/>
<path class="st0" d="M48,6.3c-0.2,2.6-1.3,4.8-3.6,6.2c-2,1.2-3.9,1-5.7-0.4c-2.1-1.7-3.2-3.9-3-6.6c0.2-1.5,0.9-2.9,2-3.9
	c1.1-1,2.5-1.6,4-1.6c1.5,0,2.9,0.5,4.1,1.4c1.1,1,1.9,2.3,2.1,3.8C48,5.6,48,5.9,48,6.3z"/>
<path class="st0" d="M46.7,27.7c-0.9,0.2-1.8,0.3-2.7,0.4c-0.7,0-1.3,0-2,0c0,0-0.1,0-0.1,0c0,0-0.1,0-0.1-0.1
	c-1.4-1.9-3.3-3.4-5.4-4.3c-0.1,0-0.1-0.1-0.2-0.1c0-0.1-0.1-0.1,0-0.2c0-0.5,0-1.1,0-1.6c0-0.1,0-0.2,0-0.2c0-0.1-0.1-0.1-0.1-0.2
	c0-0.1-0.1-0.1-0.2-0.1c-0.1,0-0.1,0-0.2,0c-0.1,0-0.1,0-0.2,0c-0.1,0-0.1,0.1-0.2,0.1c-0.1,0.1-0.1,0.1-0.1,0.2c0,0.1,0,0.1,0,0.2
	c0,0.5,0,0.9,0,1.4l-2-0.6l0.1-0.2c2-2.1,3.2-4.8,3.4-7.6c0-0.1,0-0.2,0.2-0.2c0.7-0.1,1.3-0.2,2-0.3c0.1,0,0.2,0,0.3,0.1
	c0.9,0.4,1.8,0.7,2.8,0.7c1,0,1.9-0.2,2.8-0.6c0.1,0,0.1-0.1,0.2-0.1c2.5,0.3,4.7,1.1,6.4,2.9c0.6,0.5,1,1.2,1.3,1.9
	c0.3,0.7,0.4,1.5,0.4,2.3c0,0.8-0.2,1.5-0.6,2.2c-0.3,0.7-0.8,1.3-1.4,1.8c-0.9,0.8-2,1.5-3.1,1.9c0,0-0.1,0-0.1,0v-5.5
	c0-0.1,0-0.2,0-0.2c0-0.1-0.1-0.3-0.2-0.4c-0.1-0.1-0.2-0.2-0.4-0.2s-0.3,0.1-0.4,0.2c-0.1,0.1-0.2,0.2-0.2,0.4c0,0.1,0,0.1,0,0.2
	L46.7,27.7L46.7,27.7z"/>
<path class="st0" d="M18,23.3v-1.2c0-0.1,0-0.2,0-0.3c0-0.1,0-0.2,0-0.2c0-0.1-0.1-0.1-0.1-0.2c-0.1-0.1-0.1-0.1-0.2-0.1
	c-0.1,0-0.1,0-0.2,0c-0.1,0-0.1,0-0.2,0c-0.1,0-0.1,0.1-0.2,0.1C17,21.4,17,21.4,17,21.5c0,0.1,0,0.1,0,0.2c0,0.6,0,1.2,0,1.8
	c0,0.1,0,0.1,0,0.2c0,0.1-0.1,0.1-0.2,0.1c-1.9,0.9-3.6,2.3-4.9,4.1c0,0-0.1,0.1-0.1,0.1c0,0-0.1,0-0.1,0c-1.2,0-2.5,0-3.7-0.1
	c-0.5-0.1-1-0.1-1.6-0.3v-5.9c0-0.1,0-0.2,0-0.2c0-0.1-0.1-0.2-0.2-0.3c-0.1-0.1-0.2-0.1-0.3-0.1c-0.1,0-0.3,0-0.3,0.1
	c-0.1,0.1-0.2,0.2-0.2,0.3c0,0.1,0,0.2,0,0.2v5.6c-0.4-0.2-0.7-0.3-1-0.4c-1.2-0.5-2.2-1.4-3-2.4C0.4,23.6,0,22.3,0,21
	c0-1.3,0.5-2.6,1.4-3.5c1.2-1.3,2.7-2.3,4.5-2.7c0.7-0.2,1.4-0.3,2.1-0.4c0.1,0,0.2,0,0.3,0c0.9,0.4,1.9,0.6,2.8,0.6
	c1,0,1.9-0.2,2.8-0.7c0.1,0,0.2-0.1,0.3-0.1c0.7,0.1,1.4,0.2,2.1,0.3c0.1,0,0.2,0.1,0.2,0.2c0.2,2.9,1.4,5.6,3.5,7.7l0.1,0.2
	L18,23.3z"/>
<path class="st0" d="M18.6,14.7c0-5,3.9-8.7,8.4-8.4c1.1,0.1,2.1,0.4,3.1,0.9s1.8,1.2,2.5,2c0.7,0.8,1.2,1.8,1.5,2.8
	s0.4,2.1,0.2,3.2c-0.1,1.3-0.6,2.6-1.2,3.8c-0.7,1.2-1.6,2.1-2.6,2.9c-1.1,0.9-2.5,1.4-4,1.4s-2.8-0.5-4-1.4
	c-1.2-0.8-2.1-1.9-2.8-3.2C19.1,17.5,18.7,16.1,18.6,14.7z"/>
<path class="st0" d="M35,40.9v-6.8c0-0.2,0-0.4-0.1-0.5c-0.1-0.2-0.2-0.3-0.4-0.3c-0.1,0-0.2-0.1-0.4,0c-0.1,0-0.2,0.1-0.3,0.1
	c-0.1,0.1-0.2,0.2-0.2,0.3c-0.1,0.1-0.1,0.2-0.1,0.3c0,0.1,0,0.2,0,0.3c0,2.3,0,4.7,0,7c0,0.2-0.1,0.3-0.2,0.3
	c-1.3,0.3-2.6,0.5-4,0.5h-4.9c-1.5,0-3-0.2-4.4-0.6c0,0-0.1,0-0.1,0c0,0-0.1-0.1-0.1-0.1c0,0,0-0.1-0.1-0.1c0,0,0-0.1,0-0.1
	c0-2.3,0-4.6,0-6.9c0-0.2,0-0.4-0.1-0.5c-0.1-0.2-0.2-0.3-0.4-0.3c-0.1-0.1-0.3-0.1-0.4-0.1c-0.1,0-0.3,0.1-0.4,0.1
	c-0.1,0.1-0.2,0.2-0.3,0.3C18.1,33.7,18,33.8,18,34c0,0.3,0,0.5,0,0.8v5.9c-0.1,0-0.1,0-0.1,0c-1.8-0.8-3.3-2.1-4.4-3.8
	c-1.7-2.8-1.5-6,0.6-8.6c1.3-1.6,3.1-2.8,5-3.5c0.8-0.3,1.7-0.5,2.6-0.7c0.1,0,0.2,0,0.2,0c0.1,0,0.2,0,0.2,0.1c3,1.7,5.9,1.7,8.9,0
	c0.2-0.1,0.4-0.2,0.6-0.1c2.3,0.3,4.5,1.2,6.4,2.7c1.5,1.1,2.6,2.6,3.1,4.4c0.6,2.3,0.1,4.4-1.3,6.3c-1.2,1.5-2.7,2.7-4.5,3.4
	C35.1,40.8,35.1,40.9,35,40.9z"/>
</svg>
